<svg width="20" height="20" viewBox="0 0 20 20" fill="none" xmlns="http://www.w3.org/2000/svg">
<path d="M18.9929 3.02143C19.5491 2.4652 19.5491 1.56337 18.9929 1.00714C18.4366 0.450913 17.5348 0.450913 16.9786 1.00714L11.4142 6.5715C10.6332 7.35255 9.36683 7.35255 8.58579 6.5715L3.02143 1.00714C2.4652 0.450912 1.56337 0.450913 1.00714 1.00714C0.450913 1.56337 0.450913 2.4652 1.00714 3.02143L6.5715 8.58579C7.35255 9.36684 7.35255 10.6332 6.5715 11.4142L1.00714 16.9786C0.450912 17.5348 0.450913 18.4366 1.00714 18.9929C1.56337 19.5491 2.4652 19.5491 3.02143 18.9929L8.58579 13.4285C9.36684 12.6474 10.6332 12.6475 11.4142 13.4285L16.9786 18.9929C17.5348 19.5491 18.4366 19.5491 18.9929 18.9929C19.5491 18.4366 19.5491 17.5348 18.9929 16.9786L13.4285 11.4142C12.6474 10.6332 12.6475 9.36683 13.4285 8.58579L18.9929 3.02143Z" fill="#E5E5E5"/>
</svg>
