<svg width="82" height="82" viewBox="0 0 82 82" fill="none" xmlns="http://www.w3.org/2000/svg">
<path d="M73.9656 55.9184L62.3712 54.5946C59.5867 54.2751 56.8478 55.2337 54.885 57.1965L46.4859 65.5957C33.5676 59.0224 22.9774 48.4778 16.4042 35.5139L24.849 27.0691C26.8118 25.1062 27.7704 22.3674 27.4509 19.5829L26.1271 8.07964C25.5793 3.46922 21.6993 0 17.0433 0H9.14626C3.9881 0 -0.302764 4.29088 0.0167685 9.44907C2.43608 48.4322 33.6133 79.5639 72.5505 81.9832C77.7087 82.3028 81.9996 78.0119 81.9996 72.8537V64.9567C82.0452 60.3462 78.576 56.4662 73.9656 55.9184V55.9184Z" fill="white"/>
</svg>
